# xmcd
#
# Track frame offsets:
#	150
#	20132
#	38622
#	58205
#	79945
#	99129
#	114017
#	127790
#	144795
#	166242
#
# Disc length: 2448 seconds
#
# Revision: 24
# Processed by: cddbd v1.5.2PL0 Copyright (c) Steve Scherf et al.
# Submitted via: EasyCDDAExtractor 15.3.0.1
#
DISCID=6e098e0a
DTITLE=Alejandro Fernandez - Me Estoy Enamorando
DYEAR=1997
DGENRE=Latin
TTITLE0=Yo Naci Para Amarte
TTITLE1=Si Tu Supieras
TTITLE2=No Se Olvidar
TTITLE3=En El Jardin (A Duo Con Gloria Estefan)
TTITLE4=Me Estoy Enamorando
TTITLE5=Como El Sol Y El Trigo
TTITLE6=Noche Triste
TTITLE7=Volveras
TTITLE8=Te Juro
TTITLE9=Promesa
EXTD=
EXTT0=
EXTT1=
EXTT2=
EXTT3=
EXTT4=
EXTT5=
EXTT6=
EXTT7=
EXTT8=
EXTT9=
PLAYORDER=
